<?xml version="1.0" encoding="UTF-8"?>
<svg width="31px" height="23px" viewBox="0 0 31 23" version="1.1" xmlns="http://www.w3.org/2000/svg" xmlns:xlink="http://www.w3.org/1999/xlink">
    <title>“</title>
    <defs>
        <path d="M59.4238281,40.5996094 C61.1738281,40.5996094 62.5546875,40.0048828 63.5664062,38.8154297 C64.578125,37.6259766 65.0839844,36.375 65.0839844,35.0625 C65.0839844,34.0234375 64.7080078,33.0800781 63.9560547,32.2324219 C63.2041016,31.3847656 61.9667969,30.9609375 60.2441406,30.9609375 L60.2441406,30.9609375 L58.4804688,30.9609375 C58.9179688,29.5390625 59.4375,28.3769531 60.0390625,27.4746094 C60.640625,26.5722656 61.40625,25.7246094 62.3359375,24.9316406 C63.1289062,24.2753906 64.0791016,23.6123047 65.1865234,22.9423828 C66.2939453,22.2724609 67.4902344,21.609375 68.7753906,20.953125 L68.7753906,20.953125 L67.5449219,18.3691406 C66.3691406,18.9980469 65.0087891,19.7636719 63.4638672,20.6660156 C61.9189453,21.5683594 60.4355469,22.703125 59.0136719,24.0703125 C57.5644531,25.4921875 56.3613281,27.1054688 55.4042969,28.9101562 C54.4472656,30.7148438 53.96875,32.7246094 53.96875,34.9394531 C53.96875,36.6347656 54.4130859,38.0019531 55.3017578,39.0410156 C56.1904297,40.0800781 57.5644531,40.5996094 59.4238281,40.5996094 Z M44.2480469,40.5996094 C45.9980469,40.5996094 47.3789062,40.0048828 48.390625,38.8154297 C49.4023438,37.6259766 49.9082031,36.375 49.9082031,35.0625 C49.9082031,34.0234375 49.5322266,33.0800781 48.7802734,32.2324219 C48.0283203,31.3847656 46.7910156,30.9609375 45.0683594,30.9609375 L45.0683594,30.9609375 L43.3046875,30.9609375 C43.7421875,29.5390625 44.2617188,28.3769531 44.8632812,27.4746094 C45.4648438,26.5722656 46.2304688,25.7246094 47.1601562,24.9316406 C47.953125,24.2753906 48.9033203,23.6123047 50.0107422,22.9423828 C51.1181641,22.2724609 52.3144531,21.609375 53.5996094,20.953125 L53.5996094,20.953125 L52.3691406,18.3691406 C51.1933594,18.9980469 49.8330078,19.7636719 48.2880859,20.6660156 C46.7431641,21.5683594 45.2597656,22.703125 43.8378906,24.0703125 C42.3886719,25.4921875 41.1855469,27.1054688 40.2285156,28.9101562 C39.2714844,30.7148438 38.7929688,32.7246094 38.7929688,34.9394531 C38.7929688,36.6347656 39.2373047,38.0019531 40.1259766,39.0410156 C41.0146484,40.0800781 42.3886719,40.5996094 44.2480469,40.5996094 Z" id="path-1"></path>
    </defs>
    <g id="Page-1" stroke="none" stroke-width="1" fill="none" fill-rule="evenodd">
        <g id="quotes" transform="translate(-38.000000, -18.000000)" fill-rule="nonzero">
            <g id="“">
                <use fill="#000000" xlink:href="#path-1"></use>
                <use fill="#FFFFFF" xlink:href="#path-1"></use>
            </g>
        </g>
    </g>
</svg>